# xmcd
#
# Track frame offsets:
#	150
#	20085
#	34404
#	45941
#	65775
#	79970
#
# Disc length: 1268 seconds
#
# Revision: 1
# Processed by: cddbd v1.5.2PL0 Copyright (c) Steve Scherf et al.
# Submitted via: audiograbber 1.83.01
#
DISCID=4e04f206
DTITLE=Sunday Morning Orchestra - Sunday Morning Orchestra
DYEAR=2019
DGENRE=Blues
TTITLE0=Peace Of Conscience
TTITLE1=Jungle
TTITLE2=Runnin'
TTITLE3=Hometown Blues
TTITLE4=Holiday In Spain
TTITLE5=Waste My Time
EXTD=
EXTT0=
EXTT1=
EXTT2=
EXTT3=
EXTT4=
EXTT5=
PLAYORDER=
